<svg width="389" height="72" viewBox="0 0 389 72" fill="none" xmlns="http://www.w3.org/2000/svg">
<path d="M69.0008 1.59997V71.6H45.4008V45.8H23.6008V71.6H0.000781626V1.59997H23.6008V26.4H45.4008V1.59997H69.0008ZM109.272 19.4V53.8H119.772V71.6H75.1719V53.8H85.6719V19.4H75.1719V1.59997H119.772V19.4H109.272ZM154.434 48.4L149.134 54.3V71.6H125.934V1.59997H149.134V27L172.134 1.59997H197.834L169.834 32.4L199.234 71.6H171.934L154.434 48.4ZM232.323 -2.64645e-05C239.123 -2.64645e-05 245.123 1.36664 250.323 4.09997C255.523 6.76664 259.556 10.7 262.423 15.9C265.356 21.0333 266.823 27.1666 266.823 34.3V71.6H243.223V57.5H221.023V71.6H197.823V34.3C197.823 27.1666 199.256 21.0333 202.123 15.9C205.056 10.7 209.123 6.76664 214.323 4.09997C219.523 1.36664 225.523 -2.64645e-05 232.323 -2.64645e-05ZM243.223 39.7V32.3C243.223 27.9666 242.189 24.7 240.123 22.5C238.123 20.2333 235.456 19.1 232.123 19.1C228.789 19.1 226.089 20.2333 224.023 22.5C222.023 24.7 221.023 27.9666 221.023 32.3V39.7H243.223ZM304.622 54H298.222V71.6H274.622V1.59997H308.322C314.789 1.59997 320.422 2.66664 325.222 4.79997C330.022 6.93331 333.722 9.99997 336.322 14C338.922 18 340.222 22.6666 340.222 28C340.222 33 339.089 37.3666 336.822 41.1C334.555 44.8333 331.289 47.8 327.022 50L341.722 71.6H316.522L304.622 54ZM316.422 28C316.422 25.4 315.622 23.4 314.022 22C312.422 20.5333 310.022 19.8 306.822 19.8H298.222V36.2H306.822C310.022 36.2 312.422 35.5 314.022 34.1C315.622 32.6333 316.422 30.6 316.422 28ZM378.034 19.4V53.8H388.534V71.6H343.934V53.8H354.434V19.4H343.934V1.59997H388.534V19.4H378.034Z" fill="#F2BB3A"/>
</svg>
