<svg width="707" height="663" viewBox="0 0 707 663" fill="none" xmlns="http://www.w3.org/2000/svg">
<path d="M101.145 455.038C101.73 454.568 102.368 454.018 103.058 453.389C103.748 452.759 104.476 452.063 105.242 451.302C105.715 450.831 106.197 450.333 106.688 449.806C107.19 449.27 107.667 448.748 108.121 448.241C108.584 447.723 108.982 447.262 109.313 446.858L111.598 449.155C111.295 449.513 110.912 449.95 110.448 450.467C109.985 450.985 109.498 451.516 108.987 452.061C108.467 452.597 107.976 453.096 107.513 453.556C106.756 454.309 106.043 454.99 105.372 455.601C104.691 456.203 104.039 456.776 103.415 457.321L101.145 455.038ZM108.825 459.669C109.004 459.962 109.177 460.241 109.346 460.505C109.525 460.76 109.727 461.001 109.952 461.228C110.347 461.625 110.884 461.759 111.563 461.628C112.233 461.489 113.046 460.944 114 459.995C114.634 459.365 115.225 458.73 115.773 458.09C116.322 457.451 116.823 456.82 117.278 456.199C117.741 455.569 118.144 454.971 118.485 454.407L120.925 456.832C120.565 457.377 120.158 457.942 119.704 458.525C119.259 459.118 118.762 459.725 118.214 460.346C117.675 460.957 117.074 461.592 116.413 462.25C115.269 463.388 114.192 464.205 113.181 464.702C112.19 465.199 111.275 465.394 110.436 465.288C109.597 465.163 108.84 464.761 108.163 464.08C107.73 463.645 107.373 463.22 107.091 462.804C106.819 462.379 106.58 462.016 106.373 461.713L108.825 459.669Z" fill="#F02D2F"/>
<path d="M120.771 435.462C120.789 435.632 120.822 435.816 120.868 436.014C120.906 436.203 120.938 436.387 120.966 436.566C121.04 437 121.133 437.472 121.245 437.981C121.357 438.472 121.478 438.981 121.608 439.509C121.748 440.028 121.888 440.547 122.028 441.066C122.168 441.566 122.304 442.052 122.434 442.524C122.586 442.241 122.761 441.973 122.96 441.719C123.159 441.465 123.371 441.225 123.598 441C124.166 440.436 124.77 440.173 125.411 440.213C126.042 440.243 126.683 440.546 127.332 441.123C127.51 441.284 127.741 441.506 128.023 441.79C128.295 442.064 128.573 442.343 128.855 442.626C129.146 442.9 129.396 443.113 129.603 443.265C129.866 443.473 130.12 443.549 130.366 443.493C130.611 443.437 130.828 443.315 131.017 443.127C131.272 442.873 131.429 442.558 131.486 442.181C131.544 441.804 131.512 441.384 131.391 440.922C131.27 440.441 131.078 439.936 130.815 439.407C130.553 438.86 130.238 438.298 129.872 437.722L133.253 437.377C133.844 438.463 134.251 439.516 134.475 440.534C134.708 441.544 134.71 442.501 134.481 443.405C134.262 444.3 133.774 445.124 133.018 445.876C132.488 446.403 131.941 446.76 131.374 446.947C130.818 447.124 130.285 447.156 129.776 447.041C129.277 446.917 128.825 446.68 128.42 446.33C128.157 446.103 127.865 445.839 127.546 445.536C127.226 445.233 126.92 444.945 126.629 444.671C126.347 444.387 126.121 444.179 125.952 444.047C125.717 443.848 125.481 443.753 125.245 443.762C125.01 443.752 124.783 443.855 124.566 444.071C124.282 444.353 124.107 444.706 124.04 445.13C123.972 445.554 123.995 446.021 124.106 446.531C124.218 447.04 124.386 447.569 124.611 448.116C124.733 448.409 124.883 448.739 125.061 449.107C125.239 449.475 125.436 449.853 125.652 450.24C125.858 450.618 126.051 450.981 126.229 451.331C126.426 451.68 126.595 451.982 126.735 452.237L123.478 453.84C123.188 453.189 122.869 452.434 122.523 451.575C122.176 450.716 121.821 449.801 121.456 448.829C121.091 447.856 120.74 446.889 120.403 445.927C120.057 444.954 119.734 444.034 119.435 443.166C119.126 442.289 118.869 441.519 118.663 440.859C118.448 440.189 118.289 439.679 118.186 439.33C118.084 439.038 117.971 438.689 117.85 438.283C117.719 437.868 117.555 437.41 117.359 436.91L120.771 435.462Z" fill="#F02D2F"/>
<path d="M133.233 423.914C133.753 423.51 134.306 423.045 134.892 422.518C135.469 421.983 136.036 421.428 136.594 420.854C137.161 420.271 137.69 419.707 138.182 419.162C138.683 418.607 139.114 418.113 139.473 417.68L141.673 419.892C141.248 420.391 140.784 420.918 140.283 421.473C139.772 422.018 139.243 422.563 138.695 423.109C138.146 423.654 137.593 424.185 137.036 424.702C136.478 425.2 135.944 425.666 135.434 426.098L133.233 423.914ZM140.871 428.673C141.05 428.946 141.209 429.183 141.35 429.381C141.501 429.57 141.67 429.759 141.858 429.948C142.008 430.099 142.178 430.194 142.366 430.232C142.555 430.27 142.753 430.252 142.96 430.177C143.177 430.093 143.413 429.962 143.668 429.783C143.914 429.595 144.183 429.356 144.477 429.064C145.11 428.434 145.673 427.818 146.165 427.216C146.656 426.595 147.158 425.899 147.669 425.127L150.025 427.411C149.646 427.956 149.183 428.549 148.634 429.189C148.095 429.819 147.405 430.552 146.563 431.389C145.325 432.621 144.177 433.33 143.121 433.515C142.074 433.692 141.174 433.402 140.422 432.645C140.121 432.343 139.835 432.017 139.562 431.667C139.299 431.308 139.027 430.902 138.745 430.449L140.871 428.673ZM130.487 424.925C130.553 425.066 130.656 425.265 130.797 425.52C130.937 425.774 131.078 426.02 131.219 426.256C131.36 426.492 131.463 426.662 131.529 426.766C131.651 426.946 131.834 427.215 132.078 427.574C132.322 427.933 132.609 428.343 132.937 428.806C133.266 429.25 133.609 429.709 133.966 430.181C134.313 430.644 134.656 431.083 134.995 431.499C135.323 431.905 135.62 432.241 135.883 432.506C135.902 432.524 135.953 432.576 136.038 432.662C136.123 432.747 136.184 432.799 136.221 432.818C136.156 432.619 136.095 432.435 136.039 432.266C135.992 432.086 135.941 431.912 135.885 431.742C135.829 431.553 135.763 431.364 135.688 431.176L137.542 430.969C137.823 431.535 138.123 432.12 138.442 432.725C138.77 433.32 139.085 433.872 139.385 434.382C139.685 434.892 139.939 435.307 140.145 435.628C140.23 435.751 140.333 435.893 140.455 436.054C140.577 436.214 140.671 436.328 140.737 436.394C140.812 436.469 140.906 436.564 141.019 436.677C141.141 436.8 141.264 436.914 141.386 437.018L139.528 439.12C138.916 438.788 138.135 438.268 137.184 437.558C136.234 436.829 135.279 435.983 134.32 435.019C133.784 434.48 133.263 433.917 132.755 433.331C132.257 432.736 131.787 432.16 131.346 431.602C130.904 431.026 130.51 430.506 130.162 430.043C129.824 429.571 129.542 429.184 129.317 428.881C129.129 428.636 128.908 428.348 128.654 428.017C128.401 427.686 128.147 427.384 127.893 427.11L130.487 424.925Z" fill="#F02D2F"/>
<path d="M146.485 408.139C146.682 408.508 146.884 408.852 147.091 409.173C147.297 409.476 147.494 409.787 147.682 410.108C147.861 410.382 148.058 410.684 148.274 411.015C148.48 411.336 148.696 411.676 148.921 412.035C149.137 412.384 149.363 412.743 149.597 413.112C149.823 413.471 150.043 413.834 150.259 414.202C150.465 414.561 150.662 414.911 150.85 415.251C151.163 414.45 151.528 413.739 151.945 413.118C152.352 412.488 152.844 411.885 153.421 411.312C154.196 410.541 155.008 409.996 155.857 409.678C156.707 409.341 157.537 409.24 158.347 409.374C159.158 409.508 159.883 409.897 160.522 410.539C161.34 411.362 161.847 412.24 162.042 413.174C162.238 414.108 162.15 415.079 161.78 416.087C161.409 417.094 160.784 418.12 159.904 419.164C159.034 420.218 157.942 421.276 156.629 422.338L153.805 420.718C154.693 420.098 155.51 419.435 156.257 418.73C157.004 418.025 157.614 417.324 158.087 416.628C158.551 415.922 158.817 415.254 158.885 414.622C158.943 413.981 158.728 413.415 158.239 412.923C157.881 412.564 157.406 412.407 156.812 412.453C156.208 412.489 155.599 412.812 154.985 413.423C154.181 414.223 153.589 415.093 153.21 416.035C152.839 416.967 152.719 417.896 152.848 418.82C152.876 418.98 152.909 419.136 152.946 419.287C152.974 419.428 153.016 419.593 153.072 419.782L150.339 421.09C150.096 420.316 149.768 419.495 149.356 418.626C148.943 417.758 148.503 416.908 148.033 416.077C147.555 415.237 147.086 414.472 146.626 413.782C146.175 413.083 145.785 412.521 145.456 412.096C145.165 411.709 144.911 411.397 144.695 411.161C144.479 410.925 144.235 410.688 143.962 410.452L146.485 408.139ZM142.804 414.932C143.39 414.518 143.985 414.067 144.59 413.579C145.185 413.081 145.71 412.606 146.163 412.155C146.617 411.703 147.099 411.196 147.61 410.631C148.121 410.067 148.646 409.46 149.185 408.811C149.733 408.153 150.273 407.476 150.803 406.779C151.323 406.074 151.82 405.363 152.293 404.648L154.367 406.648C154.007 407.137 153.581 407.701 153.089 408.341C152.607 408.972 152.082 409.635 151.514 410.331C150.947 411.008 150.374 411.681 149.797 412.349C149.22 412.998 148.667 413.585 148.138 414.112C147.561 414.685 146.999 415.226 146.451 415.734C145.902 416.222 145.392 416.664 144.92 417.059L142.804 414.932Z" fill="#F02D2F"/>
<path d="M162 397.731C162.453 397.355 162.902 396.974 163.346 396.589C163.79 396.185 164.23 395.766 164.665 395.334C165.535 394.469 166.367 393.566 167.161 392.625C167.946 391.675 168.633 390.748 169.22 389.845L171.349 391.986C170.715 392.824 169.992 393.703 169.178 394.625C168.365 395.547 167.528 396.445 166.668 397.319C166.242 397.742 165.812 398.161 165.377 398.574C164.933 398.978 164.489 399.373 164.045 399.759L162 397.731ZM165.345 389.806C165.457 389.957 165.589 390.127 165.739 390.316C165.899 390.496 166.054 390.671 166.205 390.841C166.336 390.992 166.524 391.2 166.769 391.465C167.013 391.729 167.295 392.032 167.615 392.372C167.934 392.693 168.282 393.043 168.658 393.421C169.363 394.13 170.012 394.764 170.605 395.322C171.197 395.861 171.738 396.348 172.227 396.783C172.707 397.208 173.144 397.601 173.539 397.96C173.934 398.301 174.291 398.632 174.611 398.953C175.025 399.369 175.344 399.804 175.569 400.257C175.785 400.701 175.892 401.158 175.891 401.629C175.899 402.11 175.775 402.6 175.519 403.099C175.282 403.598 174.899 404.111 174.369 404.638C173.367 405.634 172.357 406.225 171.338 406.411C170.319 406.597 169.41 406.288 168.611 405.485C168.085 404.955 167.766 404.36 167.654 403.7C167.534 403.03 167.616 402.347 167.9 401.65C168.176 400.944 168.644 400.261 169.306 399.603C170.015 398.898 170.728 398.339 171.446 397.926C172.173 397.504 172.891 397.185 173.598 396.97C174.306 396.756 174.976 396.616 175.608 396.552C176.24 396.469 176.81 396.418 177.319 396.401L177.948 399.358C176.844 399.383 175.845 399.466 174.949 399.605C174.053 399.744 173.26 399.958 172.571 400.249C171.882 400.539 171.287 400.933 170.786 401.432C170.455 401.761 170.247 402.09 170.161 402.42C170.085 402.74 170.159 403.014 170.385 403.241C170.629 403.487 170.912 403.553 171.233 403.441C171.544 403.319 171.851 403.108 172.154 402.807C172.381 402.582 172.523 402.356 172.58 402.13C172.637 401.903 172.61 401.677 172.497 401.45C172.394 401.214 172.216 400.969 171.962 400.714C171.727 400.477 171.412 400.179 171.017 399.82C170.612 399.451 170.161 399.045 169.662 398.6C169.173 398.146 168.656 397.664 168.111 397.153C167.565 396.643 167.024 396.118 166.489 395.579C165.924 395.012 165.412 394.506 164.951 394.062C164.5 393.608 164.176 393.291 163.978 393.112C163.875 393.008 163.71 392.87 163.484 392.7C163.268 392.52 163.07 392.369 162.891 392.246L165.345 389.806ZM158.65 396.831C158.716 396.972 158.819 397.17 158.96 397.425C159.101 397.68 159.241 397.926 159.382 398.162C159.532 398.389 159.64 398.554 159.706 398.658C159.819 398.847 160.006 399.13 160.269 399.508C160.542 399.876 160.856 400.306 161.213 400.797C161.57 401.27 161.941 401.756 162.327 402.257C162.712 402.758 163.083 403.225 163.44 403.66C163.797 404.076 164.107 404.416 164.371 404.681C164.389 404.7 164.441 404.752 164.526 404.837C164.61 404.922 164.672 404.974 164.709 404.993C164.625 404.795 164.555 404.611 164.499 404.441C164.452 404.262 164.401 404.087 164.344 403.917C164.298 403.738 164.232 403.549 164.148 403.351L166.015 403.158C166.297 403.725 166.587 404.3 166.887 404.886C167.188 405.452 167.478 405.981 167.76 406.472C168.041 406.963 168.29 407.374 168.506 407.705C168.581 407.818 168.68 407.955 168.802 408.115C168.915 408.267 169.009 408.38 169.084 408.456C169.159 408.531 169.253 408.626 169.366 408.739C169.488 408.862 169.61 408.976 169.733 409.08L167.931 411.154C167.3 410.822 166.528 410.32 165.616 409.648C164.712 408.967 163.781 408.144 162.822 407.18C162.286 406.641 161.751 406.064 161.215 405.45C160.679 404.817 160.172 404.203 159.692 403.607C159.223 403.003 158.8 402.455 158.424 401.964C158.048 401.453 157.748 401.047 157.522 400.745C157.335 400.499 157.109 400.216 156.846 399.894C156.592 399.564 156.339 399.261 156.085 398.987L158.65 396.831Z" fill="#F02D2F"/>
<path d="M184.096 395.585C183.483 395.517 182.818 395.473 182.102 395.452C181.395 395.422 180.688 395.411 179.981 395.418C179.274 395.407 178.614 395.424 178.001 395.469L178.264 392.132C178.868 392.077 179.551 392.046 180.315 392.039C181.088 392.022 181.838 392.029 182.564 392.059C183.29 392.09 183.888 392.134 184.359 392.192L184.096 395.585Z" fill="#F02D2F"/>
<path d="M196.128 370.586L198.213 368.513L202.416 372.739C202.679 373.004 202.872 373.15 202.994 373.179C203.117 373.189 203.282 373.09 203.49 372.883C203.537 372.836 203.604 372.77 203.689 372.686C203.774 372.601 203.868 372.507 203.972 372.404C204.076 372.3 204.171 372.206 204.256 372.122C204.35 372.028 204.426 371.952 204.483 371.896C204.625 371.755 204.677 371.6 204.64 371.43C204.612 371.251 204.457 370.991 204.175 370.651C203.903 370.301 203.465 369.805 202.864 369.162C203.118 369.135 203.416 369.065 203.755 368.952C204.086 368.831 204.416 368.7 204.746 368.559C205.067 368.409 205.341 368.268 205.568 368.137C206.348 369.054 206.893 369.828 207.202 370.461C207.53 371.093 207.637 371.655 207.523 372.145C207.408 372.635 207.096 373.133 206.585 373.641C206.5 373.726 206.387 373.839 206.245 373.98C206.112 374.111 205.971 374.252 205.819 374.403C205.678 374.544 205.54 374.68 205.408 374.812C205.276 374.943 205.167 375.052 205.082 375.136C204.486 375.729 203.948 376.104 203.467 376.263C202.985 376.422 202.5 376.378 202.01 376.132C201.521 375.885 200.966 375.45 200.345 374.826L196.128 370.586ZM192.327 374.507L194.54 372.307C195.244 373.129 195.869 373.947 196.414 374.759C196.949 375.562 197.343 376.411 197.595 377.308C197.847 378.185 197.906 379.152 197.771 380.207C197.636 381.263 197.241 382.445 196.587 383.754C196.324 383.64 196.008 383.54 195.641 383.454C195.282 383.359 194.91 383.287 194.524 383.239C194.156 383.191 193.826 383.171 193.534 383.18C194.131 382.097 194.506 381.151 194.659 380.34C194.812 379.511 194.795 378.776 194.609 378.134C194.431 377.483 194.141 376.869 193.737 376.293C193.324 375.707 192.854 375.112 192.327 374.507ZM184.515 371.417L185.668 368.86C186.224 369.003 186.803 369.179 187.406 369.389C188.009 369.598 188.588 369.821 189.143 370.058C189.69 370.286 190.16 370.523 190.556 370.769L189.346 373.58C188.979 373.324 188.527 373.069 187.99 372.813C187.444 372.547 186.865 372.296 186.253 372.058C185.65 371.811 185.071 371.598 184.515 371.417ZM192.844 361.583L195.775 360.134C195.99 360.766 196.196 361.408 196.392 362.059C196.579 362.701 196.752 363.319 196.91 363.913C197.069 364.489 197.19 365.017 197.274 365.498L194.781 366.623C194.66 366.123 194.497 365.58 194.291 364.995C194.085 364.391 193.861 363.796 193.617 363.211C193.364 362.617 193.106 362.074 192.844 361.583ZM187.373 376.163L200.278 363.328L202.21 365.271L189.305 378.105L187.373 376.163ZM187.656 365.783L189.755 363.696L195.594 369.566L193.495 371.654L187.656 365.783Z" fill="#F02D2F"/>
<path d="M203.908 364.965C203.956 364.541 203.985 364.135 203.996 363.749C204.006 363.362 204.008 362.938 203.999 362.476C203.991 362.165 203.968 361.792 203.932 361.359C203.895 360.925 203.854 360.458 203.808 359.958C203.753 359.449 203.703 358.935 203.657 358.416C203.602 357.888 203.561 357.384 203.534 356.903C203.462 355.752 203.667 354.9 204.149 354.345C204.631 353.79 205.405 353.5 206.471 353.474C207.14 353.448 207.857 353.469 208.62 353.537C209.384 353.586 210.128 353.644 210.854 353.712C211.58 353.78 212.221 353.829 212.777 353.859C213.267 353.879 213.776 353.9 214.304 353.92C214.823 353.931 215.369 353.942 215.945 353.953C216.51 353.954 217.1 353.951 217.712 353.943C218.316 353.926 218.948 353.9 219.608 353.864L219.88 357.711C219.248 357.719 218.565 357.712 217.829 357.691C217.103 357.661 216.378 357.621 215.652 357.572C214.917 357.514 214.233 357.46 213.602 357.411C212.97 357.343 212.306 357.271 211.608 357.193C210.911 357.116 210.237 357.044 209.586 356.976C208.946 356.899 208.385 356.845 207.904 356.816C207.602 356.796 207.371 356.828 207.211 356.913C207.05 356.978 206.942 357.096 206.884 357.265C206.837 357.426 206.832 357.647 206.869 357.93C206.905 358.213 206.956 358.557 207.021 358.963C207.077 359.359 207.142 359.783 207.216 360.236C207.29 360.67 207.364 361.095 207.439 361.51C207.513 361.925 207.573 362.297 207.619 362.627C207.703 363.052 207.796 363.476 207.899 363.901C207.992 364.316 208.076 364.693 208.15 365.033L203.908 364.965Z" fill="#F02D2F"/>
<path d="M218.964 335.887C219.095 336.057 219.255 336.256 219.443 336.482C219.622 336.7 219.81 336.927 220.007 337.163C220.214 337.39 220.416 337.612 220.613 337.829C220.952 338.188 221.299 338.548 221.657 338.907C222.023 339.257 222.385 339.611 222.743 339.97C223.138 340.368 223.622 340.826 224.196 341.346C224.769 341.866 225.367 342.401 225.987 342.949C226.599 343.488 227.168 343.994 227.694 344.467C228.212 344.93 228.616 345.309 228.908 345.602C229.237 345.933 229.509 346.301 229.725 346.707C229.94 347.113 230.052 347.557 230.061 348.037C230.078 348.528 229.945 349.055 229.66 349.62C229.385 350.195 228.917 350.811 228.255 351.469C227.565 352.155 226.837 352.7 226.073 353.104C225.317 353.516 224.558 353.698 223.794 353.649C223.04 353.59 222.32 353.216 221.634 352.526C221.098 351.987 220.769 351.354 220.649 350.628C220.528 349.902 220.644 349.119 220.995 348.281C221.346 347.424 221.966 346.554 222.854 345.67C223.62 344.908 224.442 344.26 225.321 343.725C226.208 343.181 227.105 342.74 228.011 342.403C228.908 342.057 229.776 341.805 230.615 341.647C231.464 341.479 232.238 341.387 232.935 341.37L233.648 344.724C232.95 344.722 232.205 344.767 231.413 344.859C230.611 344.942 229.8 345.1 228.979 345.333C228.149 345.557 227.342 345.88 226.558 346.302C225.784 346.715 225.07 347.246 224.418 347.895C223.964 348.346 223.676 348.774 223.552 349.179C223.428 349.584 223.498 349.919 223.761 350.184C224.081 350.505 224.434 350.577 224.821 350.399C225.218 350.211 225.61 349.925 225.998 349.539C226.414 349.126 226.603 348.749 226.566 348.41C226.52 348.061 226.267 347.655 225.806 347.191C225.571 346.955 225.228 346.629 224.776 346.213C224.315 345.787 223.817 345.324 223.281 344.823C222.745 344.322 222.228 343.839 221.729 343.376C221.231 342.913 220.822 342.52 220.502 342.199C220.211 341.906 219.938 341.641 219.684 341.405C219.44 341.159 219.209 340.927 218.993 340.71C218.767 340.483 218.551 340.275 218.344 340.086C218.062 339.821 217.803 339.589 217.568 339.391C217.333 339.173 217.122 338.989 216.933 338.837C216.736 338.676 216.552 338.549 216.383 338.454L218.964 335.887ZM220.283 339.794C220.472 339.606 220.76 339.319 221.148 338.934C221.526 338.539 221.942 338.097 222.396 337.608C222.859 337.109 223.322 336.601 223.786 336.084C224.249 335.567 224.665 335.087 225.034 334.645L227.15 336.603C226.781 337.045 226.36 337.529 225.888 338.056C225.405 338.573 224.933 339.081 224.469 339.579C223.996 340.068 223.566 340.515 223.179 340.919C222.8 341.314 222.512 341.61 222.313 341.808L220.283 339.794Z" fill="#F02D2F"/>
<path d="M241.133 327.576C240.87 327.311 240.559 327.131 240.201 327.036C239.843 326.94 239.457 326.958 239.042 327.089C238.626 327.22 238.206 327.497 237.781 327.92C237.28 328.418 236.835 328.945 236.447 329.5C236.068 330.046 235.751 330.559 235.495 331.039C235.23 331.51 235.021 331.886 234.87 332.169C234.728 332.423 234.571 332.748 234.4 333.143C234.22 333.529 234.064 333.873 233.931 334.174L230.867 332.37C231.113 332.088 231.368 331.768 231.633 331.41C231.889 331.043 232.111 330.719 232.301 330.436C232.575 329.994 232.893 329.5 233.252 328.954C233.612 328.408 234.024 327.839 234.487 327.246C234.942 326.644 235.448 326.066 236.005 325.511C236.799 324.721 237.64 324.177 238.527 323.877C239.414 323.578 240.296 323.538 241.172 323.757C242.058 323.967 242.886 324.46 243.657 325.235C244.409 325.991 244.925 326.851 245.206 327.813C245.486 328.757 245.549 329.775 245.395 330.868C245.241 331.943 244.894 333.059 244.354 334.217C243.813 335.375 243.098 336.528 242.209 337.676L238.845 336.734C239.64 335.755 240.303 334.824 240.833 333.939C241.354 333.045 241.724 332.216 241.943 331.453C242.162 330.671 242.206 329.959 242.076 329.318C241.955 328.667 241.641 328.086 241.133 327.576ZM228.764 325.859C229.274 325.521 229.859 325.098 230.521 324.591C231.182 324.084 231.853 323.548 232.533 322.984C233.223 322.411 233.87 321.861 234.475 321.335C235.071 320.799 235.562 320.338 235.95 319.953L237.711 322.404C237.257 322.799 236.719 323.26 236.095 323.786C235.471 324.312 234.819 324.857 234.139 325.421C233.458 325.966 232.802 326.487 232.169 326.985C231.526 327.474 230.964 327.892 230.482 328.239L228.764 325.859Z" fill="#F02D2F"/>
<path d="M242.952 314.004C243.538 313.534 244.176 312.985 244.866 312.355C245.556 311.725 246.284 311.029 247.05 310.268C247.522 309.798 248.005 309.299 248.496 308.773C248.997 308.237 249.475 307.715 249.929 307.207C250.392 306.689 250.79 306.229 251.121 305.824L253.405 308.121C253.103 308.479 252.72 308.916 252.256 309.433C251.793 309.951 251.306 310.482 250.795 311.027C250.275 311.563 249.784 312.062 249.32 312.522C248.564 313.275 247.85 313.956 247.179 314.567C246.499 315.169 245.847 315.742 245.223 316.287L242.952 314.004ZM250.633 318.635C250.811 318.928 250.985 319.207 251.154 319.471C251.332 319.726 251.534 319.967 251.76 320.194C252.155 320.591 252.692 320.725 253.371 320.595C254.041 320.455 254.853 319.91 255.808 318.961C256.442 318.331 257.033 317.696 257.581 317.056C258.13 316.417 258.631 315.787 259.085 315.165C259.549 314.535 259.951 313.937 260.292 313.373L262.732 315.798C262.373 316.344 261.966 316.908 261.511 317.491C261.067 318.084 260.57 318.691 260.022 319.312C259.482 319.923 258.882 320.558 258.22 321.216C257.076 322.354 255.999 323.171 254.989 323.668C253.998 324.165 253.083 324.36 252.244 324.254C251.405 324.129 250.647 323.727 249.97 323.046C249.538 322.611 249.181 322.186 248.899 321.77C248.627 321.345 248.387 320.982 248.181 320.679L250.633 318.635Z" fill="#F02D2F"/>
<path d="M257.037 299.01C257.311 298.775 257.57 298.544 257.816 298.319C258.062 298.093 258.312 297.853 258.568 297.599C258.691 297.477 258.87 297.289 259.107 297.035C259.343 296.781 259.617 296.49 259.929 296.161C260.232 295.822 260.539 295.479 260.851 295.131C261.163 294.783 261.452 294.458 261.717 294.157C261.972 293.847 262.18 293.593 262.341 293.395C262.587 293.094 262.786 292.84 262.937 292.633C263.079 292.417 263.183 292.238 263.25 292.097L266.176 292.345C266.11 292.637 266.033 293.005 265.947 293.448C265.861 293.891 265.804 294.268 265.774 294.579C265.726 294.927 265.683 295.281 265.644 295.639C265.605 295.997 265.567 296.355 265.528 296.713C265.489 297.072 265.451 297.43 265.412 297.788C265.373 298.127 265.335 298.467 265.296 298.806C265.267 299.136 265.228 299.456 265.18 299.767C265.71 299.128 266.282 298.455 266.897 297.75C267.512 297.044 268.127 296.367 268.741 295.718C269.356 295.05 269.918 294.463 270.429 293.955L272.46 295.969C271.742 296.589 271.047 297.233 270.376 297.9C269.704 298.568 269.175 299.151 268.787 299.65C268.513 299.998 268.304 300.365 268.162 300.751C268.01 301.128 267.924 301.505 267.904 301.882C267.875 302.249 267.916 302.603 268.028 302.943C268.15 303.273 268.343 303.571 268.606 303.835C268.916 304.147 269.25 304.332 269.608 304.39C269.976 304.438 270.363 304.373 270.769 304.195C271.174 303.998 271.609 303.716 272.072 303.35C272.497 303.002 272.918 302.622 273.334 302.208C273.75 301.794 274.081 301.446 274.327 301.164L276.129 303.884C274.342 305.812 272.637 307.019 271.014 307.505C269.4 308 267.983 307.633 266.76 306.404C266.535 306.177 266.333 305.917 266.154 305.625C265.967 305.323 265.817 305.011 265.704 304.69C265.583 304.36 265.503 304.044 265.466 303.742C264.918 304.363 264.36 305.059 263.792 305.83C263.215 306.592 262.661 307.35 262.131 308.103L259.859 306.216C260.2 305.802 260.569 305.341 260.966 304.833C261.373 304.315 261.747 303.85 262.087 303.436C262.192 302.993 262.283 302.489 262.36 301.923C262.447 301.348 262.519 300.759 262.577 300.156C262.635 299.553 262.684 298.978 262.723 298.431C262.772 297.875 262.806 297.39 262.826 296.975C262.722 297.097 262.595 297.243 262.443 297.412C262.292 297.581 262.131 297.77 261.961 297.976C261.781 298.174 261.601 298.371 261.422 298.569C261.242 298.766 261.077 298.959 260.925 299.147C260.774 299.317 260.646 299.463 260.542 299.585C260.381 299.763 260.192 299.989 259.975 300.262C259.767 300.525 259.544 300.803 259.308 301.095L257.037 299.01Z" fill="#F02D2F"/>
<path d="M281.275 289.289L276.392 285.231L273.966 282.962L276.746 280.198L279.002 282.636L283.033 287.541L281.275 289.289ZM286.074 292.357C285.649 292.78 285.163 292.991 284.616 292.99C284.079 292.979 283.603 292.765 283.19 292.349C282.776 291.933 282.574 291.457 282.585 290.919C282.596 290.382 282.81 289.906 283.226 289.493C283.642 289.079 284.118 288.868 284.656 288.86C285.193 288.852 285.669 289.056 286.082 289.472C286.496 289.888 286.702 290.37 286.701 290.916C286.699 291.463 286.49 291.944 286.074 292.357Z" fill="#F02D2F"/>
<path d="M516.923 250.572L579.35 312.311M417.009 188.035L354.618 126.296M667.233 152.196L691.331 176.028C694.779 179.372 697.503 183.374 699.336 187.792C701.169 192.211 702.074 196.951 701.995 201.726C701.916 206.501 700.855 211.21 698.877 215.567C696.899 219.923 694.044 223.836 690.488 227.066L218.025 649.081C211.193 655.103 202.277 658.29 193.131 657.979C183.984 657.669 175.31 653.884 168.912 647.412L167.702 646.215C164.357 642.975 161.691 639.114 159.858 634.853C158.025 630.592 157.061 626.015 157.02 621.385C156.979 616.755 157.863 612.162 159.62 607.87C161.378 603.578 163.974 599.672 167.262 596.374L616.836 151.761C620.17 148.515 624.118 145.952 628.454 144.217C632.79 142.482 637.43 141.61 642.108 141.65C646.785 141.69 651.409 142.643 655.714 144.452C660.019 146.262 663.958 148.893 667.233 152.196ZM516.483 39.3831L492.384 15.5509C489.004 12.1411 484.956 9.44763 480.489 7.63452C476.021 5.82142 471.228 4.92665 466.4 5.0047C461.571 5.08276 456.81 6.13201 452.405 8.08855C448 10.0451 444.043 12.868 440.777 16.3852L14.0534 483.634C7.9483 490.388 4.71261 499.211 5.02006 508.265C5.32752 517.319 9.15443 525.907 15.704 532.241L16.9511 533.475C20.2297 536.78 24.1359 539.413 28.4456 541.223C32.7553 543.033 37.3839 543.983 42.0658 544.021C46.7478 544.058 51.3911 543.18 55.7296 541.439C60.068 539.698 64.0163 537.127 67.3481 533.874L516.923 89.2239C520.204 85.9273 522.797 82.0229 524.551 77.7344C526.305 73.4459 527.187 68.8573 527.146 64.2314C527.105 59.6054 526.142 55.0328 524.313 50.7752C522.483 46.5177 519.822 42.6225 516.483 39.3831Z" stroke="#F02D2F" stroke-width="10" stroke-linecap="round" stroke-linejoin="round"/>
</svg>
