<svg width="39" height="39" viewBox="0 0 39 39" fill="none" xmlns="http://www.w3.org/2000/svg">
<path fill-rule="evenodd" clip-rule="evenodd" d="M14.2263 3.75049C12.5813 4.03245 11.1078 4.93636 10.111 6.27498C9.11424 7.61359 8.67056 9.28433 8.87188 10.9411L8.8995 11.1686C8.94751 11.5624 9.13793 11.9251 9.43488 12.1882C9.73182 12.4513 10.1148 12.5967 10.5115 12.597H13.378L8.55825 35.0919C8.49059 35.408 8.55128 35.738 8.72696 36.0094C8.90265 36.2808 9.17894 36.4713 9.49507 36.5389C9.81119 36.6066 10.1412 36.5459 10.4126 36.3702C10.684 36.1945 10.8745 35.9182 10.9421 35.6021L12.4761 28.4407H26.5226L28.0583 35.6021C28.1259 35.9182 28.3164 36.1945 28.5878 36.3702C28.8591 36.5459 29.1892 36.6066 29.5053 36.5389C29.8214 36.4713 30.0977 36.2808 30.2734 36.0094C30.4491 35.738 30.5098 35.408 30.4421 35.0919L25.6191 12.597H28.4856C28.8829 12.5971 29.2664 12.4516 29.5638 12.1881C29.8611 11.9247 30.0516 11.5614 30.0993 11.167L30.1269 10.9411C30.3282 9.28433 29.8845 7.61359 28.8877 6.27498C27.891 4.93636 26.4175 4.03245 24.7725 3.75049L24.1664 3.64648C21.077 3.11686 17.9201 3.11686 14.8308 3.64648L14.2263 3.75049ZM23.1556 12.597H15.8431C15.8412 12.6826 15.8325 12.7679 15.8171 12.8521L12.9978 26.0032H26.001L23.1833 12.8521C23.1673 12.7679 23.1581 12.6826 23.1556 12.597Z" fill="#8E8C8C"/>
</svg>
