<svg width="129" height="139" viewBox="0 0 129 139" fill="none" xmlns="http://www.w3.org/2000/svg">
<path d="M34.9336 131.531V110.93C35.1025 110.886 35.3029 110.821 35.452 110.776C36.2536 110.53 36.8101 110.271 37.2109 110C37.3972 109.879 37.5708 109.74 37.7293 109.585C37.8585 109.45 38.0391 109.171 38.0391 109.171L38.2461 108.809L38.2461 105.031H36.5898V91.7808H33.2773L33.2773 105.031H20.0273L20.0273 91.7808H16.7148L16.7148 105.031H15.0586V108.809L15.2656 109.171C15.2656 109.171 15.4478 109.45 15.577 109.585C15.735 109.74 15.9081 109.879 16.0938 110C16.4946 110.271 17.0511 110.53 17.8543 110.776C18.0034 110.821 18.2022 110.886 18.3711 110.93L18.3711 131.531H21.6836V129.875H31.6211V131.531H34.9336ZM31.6211 126.562H28.3086L28.3086 111.604C29.564 111.571 30.6903 111.538 31.6211 111.449L31.6211 126.562ZM24.9961 126.562H21.6836L21.6836 111.449C22.6161 111.54 23.7407 111.571 24.9961 111.604L24.9961 126.562Z" fill="#8E8C8C"/>
<path d="M18.2539 6.80801L18.3623 27.4082C18.1936 27.4538 17.9935 27.5194 17.8447 27.5649C17.0444 27.8159 16.4892 28.0772 16.0899 28.3509C15.9043 28.4722 15.7313 28.6119 15.5737 28.7677C15.4452 28.9042 15.2661 29.1834 15.2661 29.1834L15.061 29.5472L15.0809 33.3251L16.7371 33.3164L16.8068 46.5662L20.1193 46.5487L20.0496 33.2989L33.2994 33.2292L33.3691 46.479L36.6816 46.4616L36.6118 33.2118L38.2681 33.203L38.2482 29.4252L38.0392 29.0636C38.0392 29.0636 37.8556 28.7863 37.7257 28.6511C37.5669 28.497 37.393 28.3592 37.2068 28.2398C36.8045 27.9703 36.2467 27.7148 35.4421 27.4723C35.2928 27.4284 35.0937 27.3648 34.9246 27.321L34.8161 6.72083L31.5037 6.73827L31.5124 8.3945L21.575 8.4468L21.5663 6.79057L18.2539 6.80801ZM21.5925 11.7593L24.9049 11.7418L24.9836 26.6992C23.7284 26.7389 22.6023 26.778 21.672 26.8723L21.5925 11.7593ZM28.2174 11.7244L31.5298 11.7069L31.6094 26.82C30.6764 26.7338 29.5517 26.7083 28.2961 26.6818L28.2174 11.7244Z" fill="#8E8C8C"/>
<path d="M56.2539 6.80801L56.3623 27.4082C56.1936 27.4538 55.9935 27.5194 55.8447 27.5649C55.0444 27.8159 54.4892 28.0772 54.0899 28.3509C53.9043 28.4722 53.7313 28.6119 53.5737 28.7677C53.4452 28.9042 53.2661 29.1834 53.2661 29.1834L53.061 29.5472L53.0809 33.3251L54.7371 33.3164L54.8068 46.5662L58.1193 46.5487L58.0496 33.2989L71.2994 33.2292L71.3691 46.479L74.6816 46.4616L74.6118 33.2118L76.2681 33.203L76.2482 29.4252L76.0392 29.0636C76.0392 29.0636 75.8556 28.7863 75.7257 28.6511C75.5669 28.497 75.393 28.3592 75.2068 28.2398C74.8045 27.9703 74.2467 27.7148 73.4421 27.4723C73.2928 27.4284 73.0937 27.3648 72.9246 27.321L72.8161 6.72083L69.5037 6.73827L69.5124 8.3945L59.575 8.4468L59.5663 6.79057L56.2539 6.80801ZM59.5925 11.7593L62.9049 11.7418L62.9836 26.6992C61.7284 26.7389 60.6023 26.778 59.672 26.8723L59.5925 11.7593ZM66.2174 11.7244L69.5298 11.7069L69.6094 26.82C68.6764 26.7338 67.5517 26.7083 66.2961 26.6818L66.2174 11.7244Z" fill="#8E8C8C"/>
<path d="M93.2539 6.80801L93.3623 27.4082C93.1936 27.4538 92.9935 27.5194 92.8447 27.5649C92.0444 27.8159 91.4892 28.0772 91.0899 28.3509C90.9043 28.4722 90.7313 28.6119 90.5737 28.7677C90.4452 28.9042 90.2661 29.1834 90.2661 29.1834L90.061 29.5472L90.0809 33.3251L91.7371 33.3164L91.8068 46.5662L95.1193 46.5487L95.0496 33.2989L108.299 33.2292L108.369 46.479L111.682 46.4616L111.612 33.2118L113.268 33.203L113.248 29.4252L113.039 29.0636C113.039 29.0636 112.856 28.7863 112.726 28.6511C112.567 28.497 112.393 28.3592 112.207 28.2398C111.805 27.9703 111.247 27.7148 110.442 27.4723C110.293 27.4284 110.094 27.3648 109.925 27.321L109.816 6.72083L106.504 6.73827L106.512 8.3945L96.575 8.4468L96.5663 6.79057L93.2539 6.80801ZM96.5925 11.7593L99.9049 11.7418L99.9836 26.6992C98.7284 26.7389 97.6023 26.778 96.672 26.8723L96.5925 11.7593ZM103.217 11.7244L106.53 11.7069L106.609 26.82C105.676 26.7338 104.552 26.7083 103.296 26.6818L103.217 11.7244Z" fill="#8E8C8C"/>
<path d="M109.781 131.375V110.775C109.95 110.73 110.151 110.665 110.3 110.621C111.101 110.374 111.658 110.115 112.059 109.844C112.245 109.723 112.418 109.585 112.577 109.43C112.706 109.294 112.887 109.016 112.887 109.016L113.094 108.653V104.875H111.438V91.625H108.125V104.875H94.875V91.625H91.5625V104.875H89.9062V108.653L90.1133 109.016C90.1133 109.016 90.2955 109.294 90.4247 109.43C90.5826 109.585 90.7558 109.723 90.9414 109.844C91.3422 110.115 91.8987 110.374 92.702 110.621C92.8511 110.665 93.0498 110.73 93.2188 110.775V131.375H96.5312V129.719H106.469V131.375H109.781ZM106.469 126.406H103.156V111.449C104.412 111.416 105.538 111.382 106.469 111.293V126.406ZM99.8438 126.406H96.5312V111.293C97.4637 111.384 98.5883 111.416 99.8438 111.449V126.406Z" fill="#8E8C8C"/>
<path d="M72.7812 131.375V110.775C72.9502 110.73 73.1506 110.665 73.2997 110.621C74.1013 110.374 74.6578 110.115 75.0586 109.844C75.2448 109.723 75.4185 109.585 75.577 109.43C75.7062 109.294 75.8867 109.016 75.8867 109.016L76.0938 108.653V104.875H74.4375V91.625H71.125V104.875H57.875L57.875 91.625H54.5625L54.5625 104.875H52.9062V108.653L53.1133 109.016C53.1133 109.016 53.2955 109.294 53.4247 109.43C53.5826 109.585 53.7558 109.723 53.9414 109.844C54.3422 110.115 54.8987 110.374 55.702 110.621C55.8511 110.665 56.0498 110.73 56.2188 110.775V131.375H59.5312V129.719H69.4688V131.375H72.7812ZM69.4688 126.406H66.1562V111.449C67.4117 111.416 68.5379 111.382 69.4688 111.293V126.406ZM62.8438 126.406H59.5312V111.293C60.4637 111.384 61.5883 111.416 62.8438 111.449V126.406Z" fill="#8E8C8C"/>
<rect x="4" y="89" width="40" height="124" transform="rotate(-90 4 89)" fill="#8E8C8C"/>
</svg>
