<svg width="46" height="102" viewBox="0 0 46 102" fill="none" xmlns="http://www.w3.org/2000/svg">
<path d="M9.40945 39.3817C8.87929 39.3767 8.43689 39.193 8.08224 38.8303C7.72759 38.4677 7.55212 38.022 7.55583 37.493L7.57335 35.6219C6.01406 35.6073 4.69377 35.0491 3.61249 33.9474C2.53121 32.8457 1.99787 31.5152 2.01247 29.9559L2.10007 20.6002C2.10971 19.571 2.4847 18.6938 3.22504 17.9684C3.96539 17.243 4.84951 16.8845 5.8774 16.8929C6.9053 16.9013 7.78318 17.2763 8.51103 18.0179C9.23889 18.7595 9.59676 19.6436 9.58466 20.6702L9.51457 28.1548L35.7106 28.4001L35.7807 20.9155C35.7903 19.8864 36.1653 19.0091 36.9057 18.2838C37.646 17.5584 38.5302 17.1999 39.558 17.2083C40.5859 17.2166 41.4638 17.5916 42.1917 18.3333C42.9195 19.0749 43.2774 19.959 43.2653 20.9856L43.1777 30.3413C43.1631 31.9006 42.6049 33.2209 41.5032 34.3022C40.4015 35.3835 39.071 35.9168 37.5117 35.9022L37.4942 37.7734C37.4892 38.3035 37.3054 38.7466 36.9428 39.1024C36.5802 39.4583 36.1344 39.6332 35.6055 39.627C35.0766 39.6208 34.6342 39.437 34.2783 39.0756C33.9224 38.7143 33.7469 38.2685 33.7519 37.7383L33.7694 35.8672L11.3156 35.6569L11.2981 37.5281C11.2932 38.0582 11.1094 38.5013 10.7467 38.8572C10.3841 39.2131 9.93835 39.3879 9.40945 39.3817ZM13.2919 24.4476L13.327 20.7053C13.343 18.9901 12.8353 17.449 11.804 16.082C10.7726 14.715 9.43244 13.7437 7.78359 13.1681L7.80111 11.297C7.81571 9.73769 8.37387 8.41741 9.4756 7.33613C10.5773 6.25485 11.9078 5.7215 13.4671 5.7361L32.1786 5.91131C33.7379 5.92591 35.0582 6.48407 36.1394 7.58579C37.2207 8.68752 37.7541 10.018 37.7395 11.5773L37.7219 13.4485C36.0338 13.8693 34.6687 14.7691 33.6266 16.1478C32.5844 17.5266 32.0551 19.1041 32.0384 20.8805L32.0034 24.6228L13.2919 24.4476Z" fill="#8E8C8C"/>
<path d="M35.5541 62.6139C36.0843 62.6139 36.5284 62.7935 36.8865 63.1528C37.2445 63.5121 37.4241 63.9562 37.4254 64.4851V66.3564C38.9847 66.3564 40.3102 66.9021 41.4017 67.9937C42.4933 69.0852 43.0391 70.4107 43.0391 71.97V81.3262C43.0391 82.3554 42.6723 83.2361 41.9388 83.9684C41.2053 84.7006 40.3245 85.0674 39.2966 85.0686C38.2687 85.0699 37.3873 84.7031 36.6526 83.9684C35.9178 83.2336 35.5517 82.3529 35.5541 81.3262V73.8413H9.35695V81.3262C9.35695 82.3554 8.99019 83.2361 8.25666 83.9684C7.52314 84.7006 6.64242 85.0674 5.61449 85.0686C4.58656 85.0699 3.70521 84.7031 2.97044 83.9684C2.23567 83.2336 1.86954 82.3529 1.87203 81.3262V71.97C1.87203 70.4107 2.41781 69.0852 3.50936 67.9937C4.60091 66.9021 5.92636 66.3564 7.48572 66.3564V64.4851C7.48572 63.955 7.66536 63.5102 8.02463 63.1509C8.38391 62.7917 8.82801 62.6127 9.35695 62.6139C9.88588 62.6152 10.33 62.7948 10.6893 63.1528C11.0485 63.5108 11.2282 63.955 11.2282 64.4851V66.3564H33.6829V64.4851C33.6829 63.955 33.8626 63.5102 34.2218 63.1509C34.5811 62.7917 35.0252 62.6127 35.5541 62.6139ZM31.8117 77.5837V81.3262C31.8117 83.0415 32.3338 84.5778 33.3779 85.935C34.4221 87.2923 35.7712 88.251 37.4254 88.8111V90.6823C37.4254 92.2417 36.8796 93.5671 35.7881 94.6587C34.6965 95.7502 33.371 96.296 31.8117 96.296H13.0994C11.54 96.296 10.2146 95.7502 9.12304 94.6587C8.03149 93.5671 7.48572 92.2417 7.48572 90.6823V88.8111C9.16982 88.3745 10.5265 87.4619 11.5556 86.0735C12.5848 84.685 13.0994 83.1026 13.0994 81.3262V77.5837H31.8117Z" fill="#8E8C8C"/>
<rect x="2" y="43" width="40" height="16" fill="#8E8C8C"/>
</svg>
