<svg width="131" height="97" viewBox="0 0 131 97" fill="none" xmlns="http://www.w3.org/2000/svg">
<path d="M90.9333 13.4065C90.9381 12.8763 91.1217 12.4339 91.4842 12.0791C91.8467 11.7243 92.2924 11.5487 92.8213 11.5523L94.6925 11.5692C94.7066 10.0099 95.2643 8.6894 96.3657 7.60775C97.467 6.52611 98.7974 5.99233 100.357 6.00642L109.712 6.09095C110.742 6.10025 111.619 6.47495 112.345 7.21506C113.07 7.95516 113.429 8.83917 113.421 9.86707C113.413 10.895 113.038 11.773 112.297 12.5011C111.555 13.2292 110.671 13.5873 109.645 13.5756L102.16 13.5079L101.924 39.7041L109.408 39.7717C110.437 39.781 111.315 40.1557 112.04 40.8958C112.766 41.6359 113.125 42.5199 113.117 43.5478C113.109 44.5757 112.734 45.4537 111.992 46.1818C111.251 46.9099 110.367 47.2681 109.34 47.2563L99.9847 47.1718C98.4254 47.1577 97.105 46.6 96.0233 45.4986C94.9417 44.3972 94.4079 43.0669 94.422 41.5076L92.5508 41.4907C92.0207 41.4859 91.5776 41.3023 91.2216 40.9397C90.8656 40.5772 90.6906 40.1315 90.6966 39.6026C90.7026 39.0737 90.8863 38.6313 91.2475 38.2752C91.6088 37.9192 92.0545 37.7436 92.5846 37.7484L94.4558 37.7653L94.6587 15.3115L92.7875 15.2946C92.2574 15.2898 91.8143 15.1061 91.4583 14.7436C91.1022 14.3811 90.9272 13.9354 90.9333 13.4065ZM105.869 17.2841L109.611 17.3179C111.326 17.3334 112.867 16.8252 114.234 15.7933C115.6 14.7615 116.571 13.4211 117.146 11.772L119.017 11.7889C120.577 11.803 121.897 12.3608 122.979 13.4621C124.061 14.5635 124.594 15.8938 124.58 17.4531L124.411 36.1646C124.397 37.7239 123.839 39.0444 122.738 40.126C121.637 41.2077 120.306 41.7415 118.747 41.7274L116.876 41.7105C116.454 40.0225 115.554 38.6577 114.175 37.616C112.796 36.5743 111.218 36.0454 109.442 36.0294L105.7 35.9956L105.869 17.2841Z" fill="#8E8C8C"/>
<path d="M90.9333 58.4065C90.9381 57.8763 91.1217 57.4339 91.4842 57.0791C91.8467 56.7243 92.2924 56.5487 92.8213 56.5523L94.6925 56.5692C94.7066 55.0099 95.2643 53.6894 96.3657 52.6078C97.467 51.5261 98.7974 50.9923 100.357 51.0064L109.712 51.0909C110.742 51.1002 111.619 51.4749 112.345 52.2151C113.07 52.9552 113.429 53.8392 113.421 54.8671C113.413 55.895 113.038 56.773 112.297 57.5011C111.555 58.2292 110.671 58.5873 109.645 58.5756L102.16 58.5079L101.924 84.7041L109.408 84.7717C110.437 84.781 111.315 85.1557 112.04 85.8958C112.766 86.6359 113.125 87.5199 113.117 88.5478C113.109 89.5757 112.734 90.4537 111.992 91.1818C111.251 91.9099 110.367 92.2681 109.34 92.2563L99.9847 92.1718C98.4254 92.1577 97.105 91.6 96.0233 90.4986C94.9417 89.3972 94.4079 88.0669 94.422 86.5076L92.5508 86.4907C92.0207 86.4859 91.5776 86.3023 91.2216 85.9397C90.8656 85.5772 90.6906 85.1315 90.6966 84.6026C90.7026 84.0737 90.8863 83.6313 91.2475 83.2752C91.6088 82.9192 92.0545 82.7436 92.5846 82.7484L94.4558 82.7653L94.6587 60.3115L92.7875 60.2946C92.2574 60.2898 91.8143 60.1061 91.4583 59.7436C91.1022 59.3811 90.9272 58.9354 90.9333 58.4065ZM105.869 62.2841L109.611 62.3179C111.326 62.3334 112.867 61.8252 114.234 60.7933C115.6 59.7615 116.571 58.4211 117.146 56.772L119.017 56.7889C120.577 56.803 121.897 57.3608 122.979 58.4621C124.061 59.5635 124.594 60.8938 124.58 62.4531L124.411 81.1646C124.397 82.7239 123.839 84.0444 122.738 85.126C121.637 86.2077 120.306 86.7415 118.747 86.7274L116.876 86.7105C116.454 85.0225 115.554 83.6577 114.175 82.616C112.796 81.5743 111.218 81.0454 109.442 81.0294L105.7 80.9956L105.869 62.2841Z" fill="#8E8C8C"/>
<path d="M6.625 34.7812L27.2254 34.7813C27.2702 34.9502 27.3348 35.1506 27.3795 35.2997C27.6263 36.1013 27.8846 36.6578 28.1562 37.0586C28.2766 37.2448 28.4153 37.4185 28.5703 37.577C28.7061 37.7062 28.9844 37.8867 28.9844 37.8867L29.3471 38.0938H33.125V36.4375H46.375V33.125H33.125V19.875H46.375V16.5625H33.125V14.9063L29.3471 14.9063L28.9844 15.1133C28.9844 15.1133 28.7061 15.2955 28.5703 15.4247C28.4154 15.5826 28.2767 15.7558 28.1563 15.9414C27.8846 16.3422 27.6263 16.8987 27.3795 17.702C27.3348 17.8511 27.2702 18.0498 27.2254 18.2188L6.625 18.2188L6.625 21.5312H8.28125L8.28125 31.4688H6.625L6.625 34.7812ZM11.5938 31.4688V28.1562L26.5513 28.1563C26.5845 29.4117 26.6176 30.5379 26.707 31.4688L11.5938 31.4688ZM11.5938 24.8438V21.5312L26.707 21.5313C26.6159 22.4637 26.5845 23.5883 26.5513 24.8438L11.5938 24.8438Z" fill="#8E8C8C"/>
<path d="M6.625 78.7814H27.2254C27.2702 78.9503 27.3348 79.1507 27.3795 79.2998C27.6263 80.1014 27.8846 80.6579 28.1562 81.0587C28.2766 81.2449 28.4153 81.4186 28.5703 81.5771C28.7061 81.7063 28.9844 81.8868 28.9844 81.8868L29.3471 82.0939H33.125V80.4376L46.375 80.4376V77.1251L33.125 77.1251V63.8751H46.375V60.5626H33.125V58.9064L29.3471 58.9064L28.9844 59.1134C28.9844 59.1134 28.7061 59.2956 28.5703 59.4248C28.4154 59.5828 28.2767 59.7559 28.1563 59.9415C27.8846 60.3423 27.6263 60.8988 27.3795 61.7021C27.3348 61.8512 27.2702 62.0499 27.2254 62.2189H6.625L6.625 65.5314H8.28125L8.28125 75.4689H6.625L6.625 78.7814ZM11.5938 75.4689V72.1564H26.5513C26.5845 73.4118 26.6176 74.5381 26.707 75.4689H11.5938ZM11.5938 68.8439V65.5314H26.707C26.6159 66.4638 26.5845 67.5884 26.5513 68.8439H11.5938Z" fill="#8E8C8C"/>
<rect x="49" y="4" width="40" height="93" fill="#8E8C8C"/>
</svg>
