<svg width="118" height="93" viewBox="0 0 118 93" fill="none" xmlns="http://www.w3.org/2000/svg">
<path d="M84.3088 9.40649C84.3136 8.87633 84.4972 8.43387 84.8597 8.0791C85.2222 7.72434 85.6679 7.54872 86.1968 7.55225L88.068 7.56915C88.0821 6.00986 88.6398 4.68939 89.7412 3.60775C90.8425 2.5261 92.1729 1.99233 93.7321 2.00641L103.088 2.09094C104.117 2.10024 104.994 2.47495 105.72 3.21505C106.446 3.95516 106.804 4.83916 106.796 5.86706C106.788 6.89496 106.414 7.77296 105.672 8.50106C104.931 9.22916 104.047 9.58732 103.02 9.57555L95.5357 9.50793L95.299 35.7041L102.784 35.7717C103.813 35.781 104.69 36.1557 105.416 36.8958C106.141 37.6359 106.5 38.5199 106.492 39.5478C106.484 40.5757 106.109 41.4537 105.368 42.1818C104.627 42.9099 103.743 43.2681 102.716 43.2563L93.3602 43.1718C91.8009 43.1577 90.4805 42.6 89.3988 41.4986C88.3172 40.3972 87.7834 39.0669 87.7975 37.5076L85.9263 37.4907C85.3962 37.4859 84.9531 37.3023 84.5971 36.9397C84.241 36.5772 84.0661 36.1315 84.0721 35.6026C84.0781 35.0737 84.2617 34.6313 84.623 34.2752C84.9843 33.9192 85.43 33.7436 85.9601 33.7484L87.8313 33.7653L88.0342 11.3115L86.163 11.2946C85.6328 11.2898 85.1898 11.1061 84.8337 10.7436C84.4777 10.3811 84.3027 9.9354 84.3088 9.40649ZM99.2442 13.284L102.986 13.3179C104.702 13.3334 106.243 12.8252 107.609 11.7933C108.976 10.7615 109.947 9.42106 110.522 7.77203L112.393 7.78893C113.952 7.80302 115.273 8.36075 116.354 9.46212C117.436 10.5635 117.97 11.8938 117.956 13.4531L117.787 32.1646C117.773 33.7239 117.215 35.0444 116.113 36.126C115.012 37.2077 113.682 37.7415 112.122 37.7274L110.251 37.7105C109.83 36.0225 108.93 34.6577 107.551 33.616C106.171 32.5743 104.594 32.0454 102.817 32.0294L99.0751 31.9956L99.2442 13.284Z" fill="#FF0000"/>
<path d="M84.3088 54.4065C84.3136 53.8763 84.4972 53.4339 84.8597 53.0791C85.2222 52.7243 85.6679 52.5487 86.1968 52.5523L88.068 52.5692C88.0821 51.0099 88.6398 49.6894 89.7412 48.6078C90.8425 47.5261 92.1729 46.9923 93.7321 47.0064L103.088 47.091C104.117 47.1003 104.994 47.475 105.72 48.2151C106.446 48.9552 106.804 49.8392 106.796 50.8671C106.788 51.895 106.414 52.773 105.672 53.5011C104.931 54.2292 104.047 54.5873 103.02 54.5756L95.5357 54.5079L95.299 80.7041L102.784 80.7717C103.813 80.781 104.69 81.1557 105.416 81.8958C106.141 82.6359 106.5 83.5199 106.492 84.5478C106.484 85.5757 106.109 86.4537 105.368 87.1818C104.627 87.9099 103.743 88.2681 102.716 88.2563L93.3602 88.1718C91.8009 88.1577 90.4805 87.6 89.3988 86.4986C88.3172 85.3972 87.7834 84.0669 87.7975 82.5076L85.9263 82.4907C85.3962 82.4859 84.9531 82.3023 84.5971 81.9398C84.241 81.5772 84.0661 81.1315 84.0721 80.6026C84.0781 80.0737 84.2617 79.6313 84.623 79.2752C84.9843 78.9192 85.43 78.7436 85.9601 78.7484L87.8313 78.7653L88.0342 56.3115L86.163 56.2946C85.6328 56.2898 85.1898 56.1061 84.8337 55.7436C84.4777 55.3811 84.3027 54.9354 84.3088 54.4065ZM99.2442 58.2841L102.986 58.3179C104.702 58.3334 106.243 57.8252 107.609 56.7934C108.976 55.7615 109.947 54.4211 110.522 52.772L112.393 52.7889C113.952 52.803 115.273 53.3608 116.354 54.4621C117.436 55.5635 117.97 56.8938 117.956 58.4531L117.787 77.1646C117.773 78.7239 117.215 80.0444 116.113 81.1261C115.012 82.2077 113.682 82.7415 112.122 82.7274L110.251 82.7105C109.83 81.0225 108.93 79.6577 107.551 78.616C106.171 77.5743 104.594 77.0454 102.817 77.0294L99.0751 76.9956L99.2442 58.2841Z" fill="#FF0000"/>
<path d="M0 30.7813H20.6004C20.6452 30.9502 20.7098 31.1506 20.7545 31.2997C21.0012 32.1013 21.2596 32.6578 21.5312 33.0586C21.6516 33.2448 21.7903 33.4185 21.9453 33.577C22.0811 33.7062 22.3594 33.8867 22.3594 33.8867L22.7221 34.0938H26.5V32.4375H39.75V29.125H26.5V15.875H39.75V12.5625H26.5V10.9063H22.7221L22.3594 11.1133C22.3594 11.1133 22.0811 11.2955 21.9453 11.4247C21.7904 11.5827 21.6517 11.7558 21.5312 11.9414C21.2596 12.3422 21.0012 12.8987 20.7545 13.702C20.7098 13.8511 20.6452 14.0498 20.6004 14.2188H0V17.5313H1.65625V27.4688H0V30.7813ZM4.96875 27.4688V24.1563H19.9263C19.9595 25.4117 19.9926 26.5379 20.082 27.4688H4.96875ZM4.96875 20.8438V17.5313H20.082C19.9909 18.4637 19.9595 19.5883 19.9263 20.8438H4.96875Z" fill="#FF0000"/>
<path d="M0 74.7813H20.6004C20.6452 74.9502 20.7098 75.1506 20.7545 75.2997C21.0012 76.1013 21.2596 76.6578 21.5312 77.0586C21.6516 77.2448 21.7903 77.4185 21.9453 77.577C22.0811 77.7062 22.3594 77.8867 22.3594 77.8867L22.7221 78.0938H26.5V76.4375H39.75V73.125H26.5V59.875H39.75V56.5625H26.5V54.9063H22.7221L22.3594 55.1133C22.3594 55.1133 22.0811 55.2955 21.9453 55.4247C21.7904 55.5827 21.6517 55.7558 21.5312 55.9414C21.2596 56.3422 21.0012 56.8987 20.7545 57.702C20.7098 57.8511 20.6452 58.0498 20.6004 58.2188H0V61.5313H1.65625V71.4688H0V74.7813ZM4.96875 71.4688V68.1563H19.9263C19.9595 69.4117 19.9926 70.538 20.082 71.4688H4.96875ZM4.96875 64.8438V61.5313H20.082C19.9909 62.4637 19.9595 63.5883 19.9263 64.8438H4.96875Z" fill="#FF0000"/>
<path d="M42.375 0H82.375V93H42.375V0Z" fill="#FF0000"/>
</svg>
