<svg width="102" height="46" viewBox="0 0 102 46" fill="none" xmlns="http://www.w3.org/2000/svg">
<path d="M39.3816 35.9197C39.3766 36.4499 39.1928 36.8923 38.8302 37.2469C38.4676 37.6016 38.0218 37.777 37.4929 37.7733L35.6218 37.7558C35.6072 39.3151 35.049 40.6354 33.9473 41.7167C32.8456 42.7979 31.5151 43.3313 29.9558 43.3167L20.6 43.2291C19.5709 43.2194 18.6937 42.8444 17.9683 42.1041C17.2429 41.3638 16.8844 40.4796 16.8928 39.4517C16.9012 38.4238 17.2762 37.546 18.0178 36.8181C18.7594 36.0903 19.6435 35.7324 20.6701 35.7445L28.1547 35.8146L28.4 9.61851L20.9154 9.54843C19.8863 9.5388 19.009 9.16381 18.2836 8.42346C17.5583 7.68311 17.1998 6.79899 17.2082 5.7711C17.2165 4.7432 17.5915 3.86533 18.3331 3.13747C19.0748 2.40961 19.9589 2.05174 20.9855 2.06385L30.3412 2.15145C31.9005 2.16605 33.2208 2.72421 34.3021 3.82593C35.3834 4.92766 35.9167 6.25816 35.9021 7.81745L37.7732 7.83497C38.3034 7.83993 38.7464 8.02373 39.1023 8.38635C39.4582 8.74898 39.6331 9.19474 39.6269 9.72364C39.6207 10.2525 39.4369 10.6949 39.0755 11.0508C38.7141 11.4068 38.2684 11.5822 37.7382 11.5773L35.8671 11.5597L35.6568 34.0135L37.528 34.031C38.0581 34.036 38.5011 34.2198 38.857 34.5824C39.2129 34.945 39.3878 35.3908 39.3816 35.9197ZM24.4474 32.0372L20.7052 32.0022C18.9899 31.9861 17.4488 32.4938 16.0819 33.5252C14.7149 34.5566 13.7436 35.8967 13.168 37.5456L11.2969 37.528C9.73757 37.5134 8.41729 36.9553 7.336 35.8535C6.25472 34.7518 5.72138 33.4213 5.73598 31.862L5.91119 13.1506C5.92579 11.5913 6.48395 10.271 7.58567 9.18971C8.6874 8.10842 10.0179 7.57508 11.5772 7.58968L13.4483 7.6072C13.8692 9.29532 14.769 10.6604 16.1477 11.7026C17.5265 12.7447 19.104 13.2741 20.8804 13.2907L24.6227 13.3258L24.4474 32.0372Z" fill="#FF0000"/>
<path d="M62.6148 9.77536C62.6148 9.24518 62.7944 8.80108 63.1537 8.44305C63.5129 8.08502 63.9571 7.90538 64.486 7.90413H66.3572C66.3572 6.34478 66.903 5.01932 67.9945 3.92777C69.0861 2.83622 70.4115 2.29045 71.9709 2.29045L81.327 2.29045C82.3562 2.29045 83.2369 2.65721 83.9692 3.39073C84.7015 4.12425 85.0683 5.00498 85.0695 6.0329C85.0708 7.06083 84.704 7.94218 83.9692 8.67695C83.2345 9.41172 82.3537 9.77786 81.327 9.77536L73.8421 9.77536V35.9726H81.327C82.3562 35.9726 83.2369 36.3393 83.9692 37.0728C84.7015 37.8064 85.0683 38.6871 85.0695 39.715C85.0708 40.7429 84.704 41.6243 83.9692 42.3591C83.2345 43.0938 82.3537 43.46 81.327 43.4575H71.9709C70.4115 43.4575 69.0861 42.9117 67.9945 41.8202C66.903 40.7286 66.3572 39.4031 66.3572 37.8438H64.486C63.9558 37.8438 63.5111 37.6642 63.1518 37.3049C62.7925 36.9456 62.6135 36.5015 62.6148 35.9726C62.616 35.4436 62.7956 34.9995 63.1537 34.6402C63.5117 34.281 63.9558 34.1013 64.486 34.1013H66.3572V11.6466H64.486C63.9558 11.6466 63.5111 11.467 63.1518 11.1077C62.7925 10.7484 62.6135 10.3043 62.6148 9.77536ZM77.5846 13.5178H81.327C83.0423 13.5178 84.5786 12.9957 85.9359 11.9516C87.2931 10.9075 88.2518 9.5583 88.812 7.90413L90.6832 7.90413C92.2425 7.90413 93.568 8.44991 94.6595 9.54146C95.7511 10.633 96.2969 11.9585 96.2969 13.5178V32.2301C96.2969 33.7895 95.7511 35.1149 94.6595 36.2065C93.568 37.298 92.2425 37.8438 90.6832 37.8438H88.812C88.3753 36.1597 87.4628 34.803 86.0744 33.7739C84.6859 32.7447 83.1035 32.2301 81.327 32.2301H77.5846V13.5178Z" fill="#FF0000"/>
<rect x="43" y="43.3293" width="40" height="16" transform="rotate(-90 43 43.3293)" fill="#FF0000"/>
</svg>
