<svg width="103" height="103" viewBox="0 0 103 103" fill="none" xmlns="http://www.w3.org/2000/svg">
<path d="M87.5777 70.1545C82.9804 65.1733 77.4013 61.1981 71.192 58.4792C64.9827 55.7603 58.2776 54.3567 51.4991 54.3567C44.7206 54.3567 38.0156 55.7603 31.8063 58.4792C25.5969 61.1981 20.0179 65.1733 15.4205 70.1545C14.7084 70.9379 14.311 71.9569 14.3047 73.0156V90.1822C14.3197 91.3105 14.7785 92.3875 15.5817 93.18C16.385 93.9725 17.468 94.4168 18.5964 94.4167H84.4019C85.5401 94.4167 86.6317 93.9645 87.4366 93.1597C88.2414 92.3548 88.6936 91.2632 88.6936 90.125V72.9583C88.6733 71.9195 88.2769 70.9232 87.5777 70.1545Z" fill="#FF0000"/>
<path d="M51.5004 48.6388C62.5615 48.6388 71.5282 39.6721 71.5282 28.611C71.5282 17.55 62.5615 8.58325 51.5004 8.58325C40.4394 8.58325 31.4727 17.55 31.4727 28.611C31.4727 39.6721 40.4394 48.6388 51.5004 48.6388Z" fill="#FF0000"/>
</svg>
