<svg width="500" height="406" viewBox="0 0 500 406" fill="none" xmlns="http://www.w3.org/2000/svg">
<path d="M123.073 234.009L145.345 226.778L121.54 153.462L99.2689 160.693L123.073 234.009ZM148.595 225.723L170.867 218.491L147.063 145.175L124.79 152.406L148.595 225.723ZM107.122 126.854L94.775 132.274L90.6321 134.092L98.214 157.444L120.486 150.213L112.18 124.633L107.122 126.854ZM131.736 115.612L119.348 120.905L115.145 122.7L123.736 149.157L146.008 141.926L136.767 113.464L131.736 115.612ZM189.707 319.963L186.36 319.714C161.775 317.882 139.589 310.141 120.066 296.399C102.026 283.7 89.1312 267.341 81.6504 247.458L119.824 235.064L86.5064 132.45L286.007 40.6998L287.041 43.8838L143.793 109.738L139.752 111.596L149.257 140.871L302.388 91.152L303.443 94.401L150.312 144.12L174.116 217.436L327.138 167.753C332.756 188.215 331.903 208.933 324.793 229.941C317.11 252.643 303.797 271.765 284.853 287.731L282.281 289.899L289.026 310.674L196.45 340.732L189.707 319.963Z" stroke="#FF0000" stroke-width="10"/>
<path d="M341.917 236.72L339.529 234.361C330.326 225.273 324.119 214.676 321 202.6C318.339 192.296 318.495 182.28 321.494 172.622L445.971 223.898C441.305 232.848 434.379 240.032 425.193 245.535C414.457 251.967 402.692 255.08 389.694 255.022L386.33 255.007L382.118 265.232L337.708 246.938L341.917 236.72Z" stroke="#FF0000" stroke-width="10"/>
</svg>
