<svg width="476" height="517" viewBox="0 0 476 517" fill="none" xmlns="http://www.w3.org/2000/svg">
<path d="M141.338 186.288C128.385 169.174 127.32 144.205 145.454 128.997C154.541 121.39 166.498 119.826 177.092 122.175C184.799 123.867 192.326 127.71 198.578 133.481C198.709 130.087 199.194 126.697 200.057 123.433C202.621 113.664 208.948 103.587 220.588 98.874C227.746 95.9856 236.623 94.3201 245.689 96.3431C255.132 98.4434 263.643 104.291 269.851 114.361C271.923 117.71 275.116 124.363 278.645 131.948C281.332 137.708 284.419 144.481 287.663 151.611L291.26 159.512C295.486 168.775 299.815 178.177 303.872 186.696C304.531 182.929 305.058 179.451 305.446 176.762C307.108 164.941 309.67 153.358 317.545 143.92C324.897 135.09 335.636 130.938 349.662 132.248C363.705 133.574 373.557 139.914 379.411 148.576C384.224 155.801 386.391 164.468 385.546 173.108C381.113 214.852 378.114 246.272 387.863 284.569C399.791 331.353 382.371 374.438 358.564 399.102L358.245 399.428L357.911 399.723C342.857 413.056 325.015 423.581 304.128 427.817C283.129 432.052 259.927 429.751 234.572 418.792C218.566 411.876 201.229 398.943 187.375 387.537C181.102 382.341 174.926 377.029 168.849 371.605L166.081 369.143C162.506 365.969 160.009 363.737 158.483 362.516L100.408 322.48L100.12 322.283L99.8318 322.07C91.9179 315.855 86.7605 306.781 85.4697 296.801C84.1788 286.821 86.8576 276.734 92.9295 268.709L92.9703 268.669C97.9273 262.091 104.905 257.32 112.834 255.088L111.774 254.099C103.042 245.918 99.1335 235.787 99.4917 225.669C99.8462 215.857 104.183 206.876 110.395 200.209C116.615 193.534 125.283 188.583 135.063 187.566C137.475 187.316 139.89 187.313 142.307 187.558L141.338 186.288ZM183.187 242.555L183.171 242.538L183.116 242.433L183.156 242.49L183.187 242.555ZM134.73 279.7C125.441 274.166 116.102 276.011 111.086 282.531C106.068 289.149 107.202 298.64 113.686 303.93L171.754 343.958L172.05 344.163L172.337 344.392C174.415 346.031 177.71 348.951 181.5 352.329L183.981 354.545C189.032 359.02 195.161 364.402 201.868 369.921C215.547 381.18 230.776 392.313 243.614 397.843C265.229 407.19 283.69 408.668 299.604 405.443C315.477 402.242 329.675 394.173 342.461 382.941C361.336 363.169 375.43 328.174 365.758 290.201C354.885 247.487 358.455 212.291 362.854 170.708C363.127 168.162 362.569 164.388 360.509 161.346C358.758 158.752 355.295 155.709 347.512 154.968C339.705 154.235 336.823 156.409 335.047 158.525C332.476 161.623 330.63 166.739 328.725 174.733L328.601 175.699C327.847 181.677 326.919 187.632 325.816 193.555C324.857 198.714 323.634 204.386 322.176 209.49C320.836 214.224 318.912 219.814 316.055 223.893C314.955 225.457 313.48 226.72 311.764 227.566C310.049 228.411 308.148 228.811 306.238 228.73C304.327 228.649 302.468 228.088 300.83 227.1C299.193 226.112 297.83 224.729 296.867 223.076C289.853 211.053 279.575 188.841 270.511 168.984L266.858 160.994C263.63 153.881 260.607 147.238 257.966 141.575C254.225 133.544 251.644 128.285 250.426 126.334C247.247 121.165 243.778 119.276 240.737 118.609C237.35 117.85 233.271 118.356 229.145 120.023C225.959 121.315 223.405 124.317 222.119 129.221C220.791 134.262 221.304 139.786 222.896 143.475C226.346 151.487 229.884 159.605 233.164 167.114L233.187 167.155L239.753 182.23L243.031 189.852L254.308 215.439C254.951 216.815 255.312 218.306 255.372 219.823C255.431 221.341 255.186 222.855 254.653 224.276C254.119 225.698 253.307 226.999 252.263 228.103C251.22 229.206 249.967 230.091 248.578 230.704C247.188 231.316 245.69 231.646 244.172 231.672C242.653 231.698 241.145 231.421 239.735 230.857C238.325 230.293 237.042 229.452 235.961 228.386C234.881 227.319 234.024 226.047 233.441 224.644L227.273 210.663L226.899 210.215L226.716 209.995L226.558 209.767L186.651 154.331L186.563 154.208C183.136 149.288 178.01 145.81 172.173 144.441C166.791 143.254 162.558 144.42 160.121 146.479C153.455 152.059 152.074 162.665 159.527 172.509C169.658 185.884 179.726 199.306 189.732 212.775C192.877 217 195.997 221.244 199.093 225.505L210.115 239.643C211.977 242.028 212.815 245.054 212.446 248.057C212.076 251.059 210.529 253.792 208.144 255.654C205.759 257.516 202.733 258.354 199.73 257.984C196.728 257.615 193.995 256.067 192.133 253.683L185.923 245.718L185.388 245.284L185.245 245.137L149.188 215.043L148.941 214.838L148.709 214.618C144.587 210.768 140.701 209.922 137.43 210.261C133.852 210.628 130.078 212.558 127.078 215.772C124.078 218.985 122.417 222.885 122.292 226.497C122.171 229.803 123.286 233.624 127.393 237.457L127.408 237.473C139.345 248.695 150.822 258.692 159.116 265.739C167.306 272.712 175.562 279.573 184.391 285.715L184.999 286.126L185.151 286.232L185.183 286.265C187.628 287.999 189.292 290.626 189.815 293.577C190.338 296.529 189.679 299.568 187.979 302.036C186.279 304.505 183.676 306.206 180.732 306.77C177.788 307.335 174.741 306.718 172.248 305.053L172.2 305.004L172.024 304.889L171.384 304.446C168.011 302.108 164.663 299.733 161.341 297.321C159.158 295.737 156.752 293.99 154.346 292.178L134.73 279.7ZM216.681 328.297C225.481 318.403 239.872 302.577 255.874 288.19C261.347 283.281 266.824 278.702 272.197 274.638L271.339 276.862C262.971 298.779 255.602 329.38 260.652 362.795C260.877 364.277 261.391 365.699 262.165 366.982C262.939 368.265 263.958 369.383 265.165 370.272C267.601 372.067 270.65 372.821 273.642 372.368C276.634 371.915 279.323 370.292 281.119 367.856C282.914 365.42 283.668 362.37 283.215 359.378C278.947 331.175 285.12 304.722 292.646 284.996C295.701 276.982 299.317 269.194 303.467 261.689C304.939 259.038 306.499 256.437 308.144 253.89L308.374 253.538L308.432 253.482C309.773 251.554 310.487 249.257 310.474 246.908C310.462 244.558 309.724 242.27 308.362 240.355C307 238.441 305.079 236.994 302.864 236.212C300.648 235.43 298.245 235.352 295.983 235.987C277.238 241.21 257.25 256.298 240.636 271.217C223.631 286.503 208.553 303.112 199.622 313.149C197.613 315.411 196.585 318.379 196.764 321.399C196.943 324.419 198.315 327.244 200.577 329.253C202.839 331.261 205.807 332.289 208.827 332.11C211.847 331.931 214.672 330.559 216.681 328.297Z" fill="#F24822"/>
</svg>
