<svg width="47" height="47" viewBox="0 0 47 47" fill="none" xmlns="http://www.w3.org/2000/svg">
<path d="M23.4982 2.74792C29.002 2.74792 34.2803 4.9343 38.1721 8.82607C42.0639 12.7178 44.2502 17.9962 44.2502 23.5C44.2502 29.0038 42.0639 34.2822 38.1721 38.1739C34.2803 42.0657 29.002 44.2521 23.4982 44.2521C17.9944 44.2521 12.716 42.0657 8.82423 38.1739C4.93247 34.2822 2.74609 29.0038 2.74609 23.5C2.74609 17.9962 4.93247 12.7178 8.82423 8.82607C12.716 4.9343 17.9944 2.74792 23.4982 2.74792ZM23.4982 31.255C21.2897 31.2539 19.1197 31.8334 17.2059 32.9355C15.2921 34.0376 13.7017 35.6235 12.5942 37.5342C15.71 39.9618 19.5483 41.2776 23.4982 41.2723C27.4474 41.276 31.2844 39.9591 34.399 37.5311C33.2914 35.6214 31.7013 34.0364 29.7881 32.9349C27.8749 31.8334 25.7058 31.2541 23.4982 31.255ZM23.4982 5.72146C20.0537 5.72356 16.6839 6.72621 13.7986 8.60755C10.9133 10.4889 8.6366 13.1679 7.2453 16.3189C5.85399 19.4699 5.408 22.9572 5.96151 26.3569C6.51503 29.7567 8.04423 32.9224 10.3632 35.4693C11.7719 33.2635 13.7139 31.4483 16.0096 30.1914C18.3054 28.9346 20.8809 28.2766 23.4982 28.2783C29.016 28.2783 33.8632 31.1485 36.6331 35.4662C38.9511 32.9192 40.4794 29.7537 41.0324 26.3545C41.5853 22.9553 41.1391 19.4686 39.7479 16.3182C38.3567 13.1678 36.0805 10.4893 33.1958 8.60814C30.311 6.72695 26.9421 5.72411 23.4982 5.72146ZM23.4982 13.0221C24.4828 12.9934 25.4632 13.1625 26.3813 13.5195C27.2994 13.8764 28.1365 14.414 28.8431 15.1003C29.5497 15.7866 30.1115 16.6077 30.4951 17.515C30.8786 18.4222 31.0763 19.3973 31.0763 20.3823C31.0763 21.3674 30.8786 22.3424 30.4951 23.2497C30.1115 24.157 29.5497 24.9781 28.8431 25.6644C28.1365 26.3507 27.2994 26.8882 26.3813 27.2452C25.4632 27.6021 24.4828 27.7713 23.4982 27.7425C21.572 27.7028 19.7381 26.9097 18.39 25.5334C17.0418 24.1572 16.2867 22.3073 16.2867 20.3808C16.2867 18.4542 17.0418 16.6043 18.39 15.2281C19.7381 13.8518 21.572 13.0619 23.4982 13.0221ZM23.4982 15.9925C22.3347 15.9925 21.219 16.4547 20.3963 17.2774C19.5737 18.1 19.1115 19.2158 19.1115 20.3792C19.1115 21.5426 19.5737 22.6584 20.3963 23.481C21.219 24.3037 22.3347 24.7659 23.4982 24.7659C24.6616 24.7659 25.7773 24.3037 26.6 23.481C27.4227 22.6584 27.8848 21.5426 27.8848 20.3792C27.8848 19.2158 27.4227 18.1 26.6 17.2774C25.7773 16.4547 24.6616 15.9925 23.4982 15.9925Z" fill="#F2BB3A"/>
</svg>
